# xmcd
# Track frame offsets:
# 150
# 11933
# 24749
# 37187
# 48328
# 60164
# 75828
# 89668
# 101038
# 113959
#
# Disc length: 1693 seconds
# Revision: 0
# Processed by: cddbd v1.4PL0 Copyright (c) Steve Scherf et al.
# Submitted via: VisiTrax 2.9.5.181 - For more info visit www.synapsa.com
#
DISCID=7b069b0a
DTITLE=Merle Haggard - A Portrait Of Merle Haggard
DYEAR=1900
DGENRE=
TTITLE0=Workin' Man Blues
TTITLE1=What's Wrong With Stayin' Here
TTITLE2=Silver Wings
TTITLE3=Who Do I Know In Dallas
TTITLE4=She Thinks I Still Care
TTITLE5=Hungrey Eyes
TTITLE6=I Die Ten Thousand Times A Day
TTITLE7=Every Road has A Rainbow
TTITLE8=I Came So Close To Loving You
TTITLE9=Montego Bay
EXTD=
EXTT0=
EXTT1=
EXTT2=
EXTT3=
EXTT4=
EXTT5=
EXTT6=
EXTT7=
EXTT8=
EXTT9=
PLAYORDER=
